<?xml version="1.0" encoding="utf-8"?>
<!-- Generator: Adobe Illustrator 19.2.1, SVG Export Plug-In . SVG Version: 6.00 Build 0)  -->
<svg version="1.1" id="FFH-Logo_ohne_Claim_2009" xmlns="http://www.w3.org/2000/svg" xmlns:xlink="http://www.w3.org/1999/xlink"
	 x="0px" y="0px" width="841.9px" height="507px" viewBox="0 0 841.9 507" enable-background="new 0 0 841.9 507"
	 xml:space="preserve">
<path id="FFFFFF" fill="#FFFFFF" d="M815.3,189.2c-9.3-9.4-21.7-14.5-35-14.5c0,0-11.4,0-17.2,0c0-7.6,0-45,0-45l-22.3,0
	c0,0-19.4-0.4-31.2-0.6c8.5-10.6,14.3-23.2,14.3-37.4c0-16.9-6.6-32.8-18.5-44.8c-11.6-11.6-26.8-18-42.8-17.9
	c-12.1,0-23,4.8-32.7,11.7c0.2-0.7,0.7-2.4,0.7-2.4v-5.2c0-7-2.9-14-8.1-19.1c-5.2-5.2-12.2-8.2-19.4-8.1l-5.9,0
	c-5.3,0-9.7,2.8-13.8,5.8c-4.6-3.1-9.5-5.7-14.9-5.7l-6,0c-13.5,0.1-24.1,10.6-24.1,24.1c-2.8-0.3-5.6-0.7-5.6-0.7
	c-13.2,0.1-25.3,5.7-35.3,14.6c-1.2-1.8-2.5-3.6-2.5-3.6c-5.2-5.2-12.2-8.2-19.3-8.1h-4.4c0,0-6.4,1.8-10,2.9
	c-7.2-3.2-14.6-5.4-21.5-5.4c-11.1,0-21.3,3.8-30.2,9.9c-2.8-5.4-7.1-13.5-7.1-13.5c-11.7-14.2-32.7-17.8-36.8-18.4c0,0-15-1-15-1
	l-18.7,0c-13.5,0-24.1,10.6-24.1,24.1c0,0,0,1.9,0,3.7c-4.5,0-9.4,0-13.9,0c0,0,0-0.3,0-0.3c0-7-3-14-8.1-19.1
	c-5.2-5.2-12.3-8.2-19.4-8.2l-6,0c-5.7,0-10.4,3.2-14.7,6.7c-4.8-3.6-10.1-6.6-15.9-6.6c0,0-6,0-6,0c-5.5,0-10.1,3-14.3,6.3
	c-4.7-3.4-9.9-6.3-15.5-6.2l-6.5,0c-12.7,0-22,9.7-23.2,21.9c-1.2-4.9-2.1-10-5.7-13.6c-5.2-5.2-12.2-8.2-19.3-8.2l-6.6,0
	c-13.5,0-24.1,10.6-24.1,24.1c0,0,0,90,0,98.5c-6.9,0.2-33.7,0.8-33.7,0.8s0,37,0,44.6c-5.5,0-15.1,0-15.1,0
	c-26.8,0-48.7,21.3-48.8,47.4c0,0,0.9,226.2,0.9,226.3c0,12.9,4.7,24.7,13.3,33.4c8.5,8.6,20.2,13.3,32.9,13.3l720.4-0.7
	c26.8,0,48.7-21.3,48.8-47.5l1.6-225.2C829,210,824.2,198.2,815.3,189.2"/>
<path id="_x39_9CC00" fill="#99CC00" d="M807.7,222.3c0-7.3-2.9-14.2-8-19.4c-5.4-5.5-12.7-8.5-20.6-8.5c0,0-5.4,0-19.6,0v224.2
	l-124,0.2c0,0,0-68.2,0-89.7c-11.4,0-13.3,0-23.2,0c0,18.9,0,89.7,0,89.7l-124,0.2V237.5c-1.2,0-8.3-0.2-12.1-0.2
	c0,0.6,0,91.3,0,91.3s-47.7,0.1-64.8,0.1c0,19,0,90.4,0,90.4l-128.1,0.2V237.5c-1.2,0-12.1,0.1-12.1,0.1v91.3c0,0-47.7,0.1-64.8,0.1
	c0,19,0,90.4,0,90.4l-128.1,0.2V194.4c-12.5,0-17,0-17,0c-16.3,0-30.1,13.5-30.1,29.4l0.2,222.6c0,7.3,2.8,14.2,8,19.4
	c5.4,5.5,12.7,8.4,20.6,8.4l717.6,0c16.3,0,30.1-13.4,30.1-29.4L807.7,222.3z M635.5,194.4c-9,0-13.6,0-23.2,0c0,10.5,0,17.5,0,23.6
	c11.4,0,13.3,0,23.2,0C635.5,212.5,635.5,205.3,635.5,194.4z"/>
<path id="CC0033" fill="#CC0033" d="M195.7,25.9l-6.6,0c-3.9,0-7,3.1-7,6.9v30.4c0,2.8-2.4,5.1-5.2,5.1L153,68.4
	c-1.4,0-2.6-0.5-3.6-1.5c-0.9-0.9-1.4-2.1-1.4-3.3V33.2c0-1.9-0.7-3.6-2.1-5c-1.4-1.4-3.2-2.1-5.2-2.1l-6.6,0c-3.9,0-7,3.1-7,6.9
	v91.8c0,1.8,0.8,3.6,2.1,4.9c1.4,1.4,3.2,2.1,5.2,2.1l6.6,0c3.9,0,7-3.1,7-6.9V93.4c0-2.7,2.4-5.1,5.2-5.1l23.8-0.1
	c1.4,0,2.6,0.5,3.6,1.4c0.9,0.9,1.4,2.1,1.4,3.4v31.6c0,1.9,0.7,3.6,2,5c1.4,1.4,3.3,2.1,5.2,2.1l6.6,0c3.9,0,7-3.1,7-6.9V33
	c0-1.9-0.7-3.6-2.1-5C199.5,26.7,197.6,25.9,195.7,25.9 M231.4,25.8l-6,0c-3.9,0-7,3.1-7,6.9v5.1c0,1.9,0.8,3.6,2.1,5
	c1.4,1.4,3.2,2.1,5.2,2.1l6,0c3.9,0,7-3.1,7-6.9v-5.2c0-1.9-0.7-3.6-2.1-5C235.2,26.5,233.4,25.8,231.4,25.8z M231.4,51.8l-6,0
	c-3.9,0-7,3.1-7,6.9v65.8c0,1.8,0.8,3.6,2.1,4.9c1.4,1.4,3.2,2.2,5.2,2.1l6,0c3.9,0,7-3.1,7-6.9V58.9c0-1.9-0.7-3.6-2.1-5
	C235.2,52.5,233.4,51.8,231.4,51.8z M279.5,51.6c-1.1,0-2.1-0.5-2.9-1.2c-0.9-0.9-1.4-2.2-1.4-3.6v-14c0-1.8-0.7-3.6-2.1-4.9
	c-1.4-1.4-3.2-2.2-5.2-2.1l-6,0c-3.9,0-7,3.1-7,6.9v14c0,2.7-1.6,5.1-3.5,5.1c-3,0-5.4,3.1-5.4,6.9v5.2c0,2.2,0.8,4.2,2.2,5.6
	c1,1,2.2,1.5,3.5,1.5c0.9,0,1.5,0.5,1.9,0.8c0.9,0.9,1.5,2.4,1.5,4v48.7c0,1.9,0.7,3.6,2,5c1.4,1.4,3.2,2.1,5.2,2.1l6,0
	c3.9,0,7-3.1,7-6.9V75.9c0-2.7,2.1-5.1,4.6-5.1c3.5,0,6.4-3.1,6.4-6.9v-5.2c0-2-0.8-3.9-2.1-5.2C282.8,52.3,281.2,51.6,279.5,51.6z
	 M389.2,80.2c4.1-5.8,6.7-14.2,6.7-21.6c0-7.9-2.6-15.2-7.7-21.5c-6.9-8.3-23.1-10.7-23.8-10.8c-3.4-0.5-8.9-0.9-12.3-0.9l-18.7,0.1
	c-3.9,0-7,3.1-7,6.9v91.8c0,1.9,0.7,3.6,2.1,5c1.4,1.4,3.2,2.1,5.2,2.1l6.6,0c3.9,0,7-3.1,7-6.9V96.6c0-1.3,0.3-1.8,0.4-1.9
	c0,0,0.5,0.3,1.2,1.3l20.2,29.6c2.1,3.1,6.7,5.5,10.4,5.5l10.3,0c2.1,0,3.6-0.8,4.2-2.1c0.2-0.4,0.3-0.8,0.3-1.3c0-1-0.4-2-1.2-3.1
	c0,0-18.9-26.4-23-32.1C379.2,89.9,384.7,86.4,389.2,80.2z M363.5,73.1c-3.1,1-8.2,1.9-11.4,1.9c-1.3,0-2.5-0.5-3.4-1.4
	c-0.9-0.9-1.4-2.1-1.4-3.4V50.6c0-2.7,2.4-5,5.2-5l5.9,0c5.6,0,10.1,1.5,13.1,4.6c2.5,2.5,3.8,5.8,3.8,9.8
	C375.1,69,363.6,73,363.5,73.1z M477.2,50.9l-4.4,0c-3.9,0-7,3.1-7,6.9c0,0,0,0.8,0,1.5c-6.1-6.6-15.6-11-24.5-10.9
	c-22.1,0.1-38.8,18.2-38.8,42.1c0,13,4.4,24.5,12.4,32.5c6.9,6.9,15.7,10.5,25.6,10.5c9.6,0,21.6-8.5,22.1-8.9
	c1.3-1,2.5-1.1,2.9-0.9c0.4,0.2,0.4,0.9,0.4,1.1c0,1.3,0.5,2.6,1.6,3.7c1.4,1.4,3.4,2.2,5.7,2.2l4.4,0c3.9,0,7-3.1,7-6.9V58.1
	c0-1.9-0.8-3.6-2.1-5C481,51.7,479.2,50.9,477.2,50.9z M443.9,114.4c-5.5,0-10.7-2.1-14.6-6c-4.2-4.3-6.6-10.2-6.6-16.7
	c0-13.7,9.2-24,21.5-24.1c5.7,0,10.7,2,14.6,5.9c4.2,4.2,6.5,10.2,6.5,17C465.3,104.3,456.3,114.3,443.9,114.4z M570,24.7l-6,0
	c-3.9,0-7,3.1-7,6.9c0,0,0,21.6,0,25c-6.1-5.2-14.7-8.5-22.7-8.5c-21.5,0.1-39,19.3-39,42.7c0,11.8,4.7,23.2,12.8,31.3
	c7.1,7.2,16.3,11.1,25.7,11.1c9.9,0,21.1-8.4,21.6-8.8c1.5-1.2,2.5-1.1,2.8-1c0.2,0.1,0.3,0.5,0.3,1.1c0,1.3,0.6,2.7,1.6,3.7
	c1.4,1.4,3.4,2.2,5.6,2.2l4.5,0c3.9,0,7-3.1,7-6.9V31.8c0-1.9-0.7-3.6-2.1-5C573.8,25.4,571.9,24.7,570,24.7z M536.8,114.1
	c-5.3,0-10.4-2.1-14.3-6c-4.5-4.5-7-10.9-7-17.6c0-12.3,10-23.1,21.3-23.1c5.4,0,10.5,2.1,14.4,6.1c4.4,4.4,6.9,10.6,6.9,17.1
	C558.2,103.5,548.6,114,536.8,114.1z M604.6,24.5l-6,0c-3.9,0-7,3.1-7,6.9v5.1c0,1.9,0.7,3.6,2.1,5c1.4,1.4,3.2,2.1,5.2,2.1l6,0
	c3.9,0,7-3.1,7-6.9v-5.2c0-1.8-0.7-3.6-2.1-5C608.5,25.3,606.6,24.5,604.6,24.5z M604.6,50.5l-6,0c-3.9,0-7,3.1-7,6.9v65.8
	c0,1.8,0.7,3.6,2.1,4.9c1.4,1.4,3.2,2.2,5.2,2.2l6,0c3.9,0,7-3.1,7-6.9V57.7c0-1.9-0.7-3.6-2.1-5C608.5,51.3,606.6,50.5,604.6,50.5z
	 M692.8,59.6c-7.7-7.7-17.9-12-28.7-12c-22.9,0.1-41.5,19.2-41.5,42.6c0,11.5,4.5,22.3,12.6,30.4c7.8,7.9,18.1,12.2,28.9,12.1
	c22.7-0.1,41.2-19.2,41.2-42.6C705.3,78.6,700.8,67.7,692.8,59.6z M664,113.7c-5.5,0-10.6-2.1-14.4-5.9c-4.3-4.3-6.7-10.5-6.7-17.3
	c0-12.8,9.8-23.5,21.4-23.6c5,0,9.9,2.1,13.8,5.9c4.5,4.5,7,10.9,7,17.6C685,103.4,675.8,113.6,664,113.7z"/>
<path id="_x30_00000" d="M95.5,402.5l94-0.1v-87.9l64.8-0.1v-61.4l-64.8,0.1v-29.8l74.3-0.1v-71.9l-168.4,0.3V402.5z M300.5,402.2
	l94-0.2v-87.9l64.8-0.1v-62l-64.8,0.1v-29.3l74.3-0.1v-72L300.5,151V402.2z M652.6,150.5v84.6l-57.2,0.1v-84.6l-89.9,0.1v251.2
	l89.9-0.1v-87.3l57.2-0.1v87.3l89.9-0.1V150.4L652.6,150.5z"/>
</svg>
